<svg width="111" height="111" viewBox="0 0 111 111" fill="none" xmlns="http://www.w3.org/2000/svg">
<rect width="111" height="111" rx="8" fill="#343551"/>
<path d="M55.5229 72.72C51.3309 72.72 47.9869 71.824 45.4909 70.032C42.9949 68.24 41.7469 65.696 41.7469 62.4C41.7469 60.512 42.1789 58.912 43.0429 57.6C43.9389 56.256 45.1229 55.264 46.5949 54.624C45.3789 53.792 44.4509 52.768 43.8109 51.552C43.1709 50.304 42.8509 48.944 42.8509 47.472C42.8509 44.4 43.9869 42.016 46.2589 40.32C48.5629 38.592 51.6509 37.728 55.5229 37.728C59.3949 37.728 62.4669 38.592 64.7389 40.32C67.0109 42.016 68.1469 44.4 68.1469 47.472C68.1469 48.976 67.8269 50.352 67.1869 51.6C66.5469 52.816 65.6349 53.824 64.4509 54.624C65.9229 55.232 67.0909 56.208 67.9549 57.552C68.8189 58.896 69.2509 60.512 69.2509 62.4C69.2509 65.696 68.0029 68.24 65.5069 70.032C63.0429 71.824 59.7149 72.72 55.5229 72.72ZM55.5229 52.56C56.7709 52.56 57.7949 52.176 58.5949 51.408C59.4269 50.64 59.8429 49.664 59.8429 48.48C59.8429 47.296 59.4269 46.32 58.5949 45.552C57.7949 44.752 56.7709 44.352 55.5229 44.352C54.2749 44.352 53.2509 44.736 52.4509 45.504C51.6509 46.272 51.2509 47.264 51.2509 48.48C51.2509 49.664 51.6509 50.64 52.4509 51.408C53.2509 52.176 54.2749 52.56 55.5229 52.56ZM55.5229 66.144C56.9949 66.144 58.1789 65.728 59.0749 64.896C60.0029 64.032 60.4669 62.912 60.4669 61.536C60.4669 60.192 60.0029 59.088 59.0749 58.224C58.1469 57.36 56.9629 56.928 55.5229 56.928C54.0829 56.928 52.8989 57.36 51.9709 58.224C51.0429 59.088 50.5789 60.192 50.5789 61.536C50.5789 62.912 51.0269 64.032 51.9229 64.896C52.8509 65.728 54.0509 66.144 55.5229 66.144Z" fill="#47486A"/>
</svg>
