<svg width="111" height="111" viewBox="0 0 111 111" fill="none" xmlns="http://www.w3.org/2000/svg">
<rect width="111" height="111" rx="8" fill="#343551"/>
<path d="M53.2164 72.72C51.2964 72.72 49.3924 72.512 47.5044 72.096C45.6164 71.68 44.0644 71.104 42.8484 70.368V62.928C44.2884 63.856 45.9044 64.592 47.6964 65.136C49.5204 65.648 51.2324 65.904 52.8324 65.904C55.0724 65.904 56.7364 65.472 57.8244 64.608C58.9124 63.744 59.4564 62.56 59.4564 61.056C59.4564 59.616 58.8964 58.496 57.7764 57.696C56.6884 56.896 55.1524 56.496 53.1684 56.496C52.0484 56.496 50.8644 56.608 49.6164 56.832C48.4004 57.024 47.3444 57.312 46.4484 57.696L43.1844 55.824L44.5284 38.448H66.0324V45.408H52.7364L52.3044 50.688C53.7764 50.304 55.3444 50.112 57.0084 50.112C60.4964 50.112 63.2164 51.04 65.1684 52.896C67.1524 54.72 68.1444 57.36 68.1444 60.816C68.1444 64.56 66.8804 67.488 64.3524 69.6C61.8244 71.68 58.1124 72.72 53.2164 72.72Z" fill="#47486A"/>
</svg>
