<svg width="198" height="48" viewBox="0 0 198 48" fill="none" xmlns="http://www.w3.org/2000/svg">
<path fill-rule="evenodd" clip-rule="evenodd" d="M25.6145 45.8419C23.5796 47.9846 20.5453 47.9846 20.5453 47.9846C20.5453 47.9846 17.511 47.9846 15.476 45.8419C14.4156 44.8012 14.045 43.6841 13.6572 42.5153C13.179 41.074 12.6747 39.554 10.8186 38.0016C7.60866 35.3403 3.56294 37.2332 3.56294 37.2332C0.770912 31.4608 2.29108 24.7451 2.29108 24.7451C-2.30427 12.3062 1.23688 3.28746 2.41404 0.289423C2.45476 0.185707 2.49266 0.0891969 2.52729 0C5.93102 4.90404 10.2008 8.29626 15.2337 10.5765C16.9841 10.083 18.7828 9.82058 20.5453 9.83932C22.3138 9.82058 24.1065 10.083 25.8568 10.5765C30.8958 8.30251 35.1595 4.90404 38.5632 0C38.5979 0.0892005 38.6358 0.185715 38.6765 0.289435C39.8537 3.28748 43.3948 12.3062 38.7994 24.7451C38.7994 24.7451 40.3196 31.4608 37.5276 37.2332C37.5276 37.2332 33.4819 35.3403 30.2719 38.0016C28.4201 39.5532 27.915 41.0724 27.4361 42.5131C27.0472 43.6827 26.6756 44.8005 25.6145 45.8419ZM3.16884 4.02979C1.52754 9.97087 2.23614 17.4862 4.82831 22.9588C7.48104 21.0222 10.267 18.0298 11.7509 14.8624C8.25627 12.1949 5.32494 9.65851 3.16884 4.02979ZM16.7829 33.691C16.6557 29.418 12.5736 28.0436 9.78765 29.8428C9.78765 29.8428 10.2237 31.6794 12.2587 32.604C12.9702 32.9281 13.508 32.9272 14.0598 32.9263C14.7949 32.9251 15.5547 32.9238 16.7829 33.691ZM24.3067 33.691C24.4339 29.418 28.516 28.0436 31.302 29.8428C31.302 29.8428 30.8659 31.6794 28.8309 32.604C28.1194 32.9281 27.5816 32.9272 27.0298 32.9263C26.2947 32.9251 25.5349 32.9238 24.3067 33.691ZM37.9206 4.02979C39.5619 9.97087 38.8533 17.4862 36.2611 22.9588C33.6084 21.0222 30.8224 18.0298 29.3386 14.8624C32.8332 12.1949 35.7645 9.65851 37.9206 4.02979ZM20.5448 47.754C22.0031 47.754 23.1854 46.68 23.1854 45.3551C23.1854 44.0302 22.0031 42.9562 20.5448 42.9562C19.0864 42.9562 17.9041 44.0302 17.9041 45.3551C17.9041 46.68 19.0864 47.754 20.5448 47.754Z" fill="#F7F7F7"/>
<path d="M56.2031 9.25983H62.2845L74.283 28.1086V9.25983H80.5287V38.4088H74.4884L62.4489 19.56V38.4088H56.2031V9.25983Z" fill="#F7F7F7"/>
<path d="M88.2245 15.3065C87.2657 15.3065 86.4576 14.9868 85.8002 14.3473C85.1427 13.7079 84.814 12.9017 84.814 11.9287C84.814 10.9835 85.1427 10.1912 85.8002 9.55174C86.4576 8.88452 87.2657 8.55092 88.2245 8.55092C89.1833 8.55092 89.9914 8.88452 90.6489 9.55174C91.3063 10.1912 91.635 10.9835 91.635 11.9287C91.635 12.9017 91.3063 13.7079 90.6489 14.3473C89.9914 14.9868 89.1833 15.3065 88.2245 15.3065ZM85.1016 18.3923H91.3474V38.4088H85.1016V18.3923Z" fill="#F7F7F7"/>
<path d="M106.491 48C105.176 48 103.847 47.8749 102.505 47.6246C101.19 47.3744 100.08 47.0408 99.1764 46.6238V41.995C101.286 42.9402 103.724 43.4129 106.491 43.4129C108.709 43.4129 110.298 42.9541 111.257 42.0367C112.216 41.1193 112.695 39.7432 112.695 37.9083V36.6573C111.846 37.4357 110.805 38.0195 109.572 38.4088C108.34 38.8258 107.025 39.0343 105.628 39.0343C103.601 39.0343 101.779 38.5895 100.163 37.6998C98.5738 36.7824 97.3274 35.5175 96.4234 33.9051C95.5194 32.2926 95.0674 30.4578 95.0674 28.4005C95.0674 26.2877 95.5057 24.4251 96.3823 22.8126C97.2863 21.2002 98.519 19.9631 100.08 19.1012C101.669 18.2116 103.477 17.7668 105.504 17.7668C107.038 17.7668 108.394 17.9892 109.572 18.434C110.75 18.8788 111.86 19.5878 112.901 20.5608V18.3923H118.9V37.116C118.9 40.5911 117.886 43.2739 115.859 45.1643C113.832 47.0547 110.709 48 106.491 48ZM107.107 34.1553C108.394 34.1553 109.545 33.8078 110.559 33.1127C111.599 32.3899 112.312 31.4447 112.695 30.2771V26.524C112.257 25.3564 111.531 24.4251 110.517 23.73C109.531 23.035 108.394 22.6875 107.107 22.6875C105.436 22.6875 104.066 23.2018 102.998 24.2305C101.957 25.2591 101.436 26.6352 101.436 28.3588C101.436 30.1103 101.957 31.5142 102.998 32.5706C104.066 33.6271 105.436 34.1553 107.107 34.1553Z" fill="#F7F7F7"/>
<path d="M123.216 7.5918H129.421V20.6859C130.352 19.7129 131.407 18.99 132.585 18.5174C133.763 18.017 135.023 17.7668 136.365 17.7668C139.05 17.7668 141.049 18.5035 142.364 19.977C143.706 21.4226 144.378 23.3825 144.378 25.8568V38.4088H138.173V26.5657C138.173 23.9802 136.995 22.6875 134.639 22.6875C133.598 22.6875 132.626 22.9516 131.722 23.4798C130.818 23.9802 130.051 24.7309 129.421 25.7317V38.4088H123.216V7.5918Z" fill="#F7F7F7"/>
<path d="M156.756 39.0343C154.454 39.0343 152.701 38.3949 151.496 37.116C150.318 35.8094 149.729 34.0024 149.729 31.6949V22.9377H146.853V18.3923H149.729V12.3874H155.934V18.3923H160.577V22.9377H155.934V30.8609C155.934 32.0285 156.153 32.8764 156.591 33.4046C157.029 33.9051 157.81 34.1553 158.933 34.1553C159.837 34.1553 160.7 33.9329 161.522 33.488V38.2002C160.262 38.7563 158.673 39.0343 156.756 39.0343Z" fill="#F7F7F7"/>
<path d="M164.387 7.5918H170.591V38.4088H164.387V7.5918Z" fill="#F7F7F7"/>
<path d="M180.324 46.6655C179.502 46.6655 178.653 46.6099 177.777 46.4987C176.927 46.3875 176.284 46.2346 175.845 46.04V41.3278C176.64 41.6336 177.516 41.7865 178.475 41.7865C179.461 41.7865 180.201 41.5641 180.694 41.1193C181.214 40.6745 181.639 39.9795 181.968 39.0343L182.625 37.3245L174.078 18.3923H180.324L185.912 32.1953L191.213 18.3923H197.418L189.035 39.7849C188.104 42.1479 186.953 43.8855 185.584 44.9975C184.214 46.1095 182.461 46.6655 180.324 46.6655Z" fill="#F7F7F7"/>
</svg>
