<svg width="111" height="111" viewBox="0 0 111 111" fill="none" xmlns="http://www.w3.org/2000/svg">
<rect width="111" height="111" rx="8" fill="#343551"/>
<path d="M52.3337 72.72C49.9657 72.72 47.9337 72.448 46.2377 71.904V64.704C47.7097 65.472 49.5177 65.856 51.6617 65.856C54.0937 65.856 56.0777 65.216 57.6137 63.936C59.1817 62.656 60.1257 60.752 60.4457 58.224C59.6777 59.024 58.6217 59.664 57.2777 60.144C55.9337 60.592 54.4777 60.816 52.9097 60.816C50.7017 60.816 48.7497 60.368 47.0537 59.472C45.3577 58.576 44.0297 57.28 43.0697 55.584C42.1097 53.888 41.6297 51.872 41.6297 49.536C41.6297 47.264 42.1417 45.248 43.1657 43.488C44.2217 41.696 45.7737 40.288 47.8217 39.264C49.9017 38.24 52.4137 37.728 55.3577 37.728C59.8057 37.728 63.2457 39.104 65.6777 41.856C68.1417 44.576 69.3737 48.336 69.3737 53.136C69.3737 57.296 68.6377 60.848 67.1657 63.792C65.7257 66.736 63.7257 68.96 61.1657 70.464C58.6057 71.968 55.6617 72.72 52.3337 72.72ZM55.3577 54.288C56.7657 54.288 57.9497 53.808 58.9097 52.848C59.8697 51.888 60.3497 50.72 60.3497 49.344C60.3497 47.936 59.8697 46.752 58.9097 45.792C57.9497 44.832 56.7657 44.352 55.3577 44.352C53.9817 44.352 52.8137 44.848 51.8537 45.84C50.8937 46.8 50.4137 47.968 50.4137 49.344C50.4137 50.72 50.8937 51.888 51.8537 52.848C52.8137 53.808 53.9817 54.288 55.3577 54.288Z" fill="#47486A"/>
</svg>
