<svg width="111" height="111" viewBox="0 0 111 111" fill="none" xmlns="http://www.w3.org/2000/svg">
<rect width="111" height="111" rx="8" fill="#343551"/>
<path d="M42.7313 67.152L48.0593 62.304L50.3633 60.24C52.2513 58.576 53.6913 57.248 54.6833 56.256C55.7073 55.264 56.5393 54.256 57.1793 53.232C57.8513 52.208 58.1873 51.2 58.1873 50.208C58.1873 47.232 56.5073 45.744 53.1473 45.744C51.5153 45.744 49.8993 46.032 48.2993 46.608C46.7313 47.184 45.2753 47.984 43.9313 49.008V40.896C45.3713 39.904 47.0513 39.136 48.9713 38.592C50.8913 38.016 52.9393 37.728 55.1153 37.728C57.6113 37.728 59.7713 38.192 61.5953 39.12C63.4193 40.048 64.8113 41.328 65.7712 42.96C66.7313 44.592 67.2113 46.432 67.2113 48.48C67.2113 50.944 66.6353 53.104 65.4833 54.96C64.3633 56.784 62.5393 58.848 60.0113 61.152L55.7393 65.04H68.2673V72H42.7313V67.152Z" fill="#47486A"/>
</svg>
