<svg width="111" height="111" viewBox="0 0 111 111" fill="none" xmlns="http://www.w3.org/2000/svg">
<rect width="111" height="111" rx="8" fill="#343551"/>
<path d="M55.6457 72.72C52.9257 72.72 50.4937 72.112 48.3497 70.896C46.2377 69.648 44.5897 67.872 43.4057 65.568C42.2217 63.232 41.6297 60.496 41.6297 57.36C41.6297 53.264 42.3497 49.744 43.7897 46.8C45.2297 43.824 47.2297 41.568 49.7897 40.032C52.3497 38.496 55.3097 37.728 58.6697 37.728C60.9417 37.728 62.9737 38.016 64.7657 38.592V45.792C63.3577 45.024 61.5497 44.64 59.3417 44.64C56.9417 44.64 54.9897 45.296 53.4857 46.608C51.9817 47.888 51.0537 49.792 50.7017 52.32C51.5017 51.488 52.6057 50.832 54.0137 50.352C55.4217 49.872 56.9097 49.632 58.4777 49.632C60.6217 49.632 62.5097 50.08 64.1417 50.976C65.8057 51.84 67.0857 53.104 67.9817 54.768C68.9097 56.432 69.3737 58.432 69.3737 60.768C69.3737 63.04 68.8457 65.088 67.7897 66.912C66.7657 68.704 65.2137 70.128 63.1337 71.184C61.0857 72.208 58.5897 72.72 55.6457 72.72ZM55.7897 66.144C57.1977 66.144 58.3817 65.664 59.3417 64.704C60.3017 63.744 60.7817 62.576 60.7817 61.2C60.7817 59.792 60.3017 58.608 59.3417 57.648C58.3817 56.688 57.1977 56.208 55.7897 56.208C54.4137 56.208 53.2457 56.704 52.2857 57.696C51.3257 58.656 50.8457 59.824 50.8457 61.2C50.8457 62.576 51.3257 63.744 52.2857 64.704C53.2457 65.664 54.4137 66.144 55.7897 66.144Z" fill="#47486A"/>
</svg>
