<svg width="111" height="111" viewBox="0 0 111 111" fill="none" xmlns="http://www.w3.org/2000/svg">
<rect width="111" height="111" rx="8" fill="#343551"/>
<path d="M53.9588 72.72C51.8468 72.72 49.8148 72.544 47.8628 72.192C45.9428 71.84 44.2948 71.312 42.9188 70.608V63.888C46.1508 65.36 49.4148 66.096 52.7108 66.096C57.1588 66.096 59.3828 64.768 59.3828 62.112C59.3828 60.768 58.8388 59.808 57.7508 59.232C56.6628 58.624 54.9668 58.32 52.6628 58.32H48.0068V51.84H52.4708C54.3588 51.84 55.8148 51.52 56.8388 50.88C57.8948 50.24 58.4228 49.296 58.4228 48.048C58.4228 46.864 57.9588 45.952 57.0308 45.312C56.1028 44.672 54.7908 44.352 53.0948 44.352C49.6068 44.352 46.4388 45.248 43.5908 47.04V40.176C45.0308 39.408 46.6788 38.816 48.5348 38.4C50.3908 37.952 52.3108 37.728 54.2948 37.728C58.6788 37.728 61.9108 38.608 63.9908 40.368C66.0708 42.096 67.1108 44.544 67.1108 47.712C67.1108 49.152 66.7588 50.512 66.0548 51.792C65.3828 53.072 64.3748 54.16 63.0308 55.056C66.3908 56.528 68.0708 59.024 68.0708 62.544C68.0708 65.776 66.9668 68.288 64.7588 70.08C62.5508 71.84 58.9508 72.72 53.9588 72.72Z" fill="#47486A"/>
</svg>
