<svg width="1525" height="90" viewBox="0 0 1525 90" fill="none" xmlns="http://www.w3.org/2000/svg">
<path fill-rule="evenodd" clip-rule="evenodd" d="M272.089 90V70.8218C269.566 68.3692 268 64.9514 268 61.1712C268 53.7079 274.102 47.6577 281.63 47.6577C286.238 47.6577 290.313 49.9256 292.78 53.3972C294.995 52.1797 297.544 51.4865 300.257 51.4865C300.873 51.4865 301.482 51.5223 302.079 51.592C303.757 44.9329 309.831 40 317.067 40C325.598 40 332.514 46.8569 332.514 55.3153C332.514 55.7885 332.492 56.2567 332.45 56.719C334.576 55.4012 337.09 54.6396 339.783 54.6396C347.436 54.6396 353.64 60.7907 353.64 68.3784C353.64 71.1846 352.791 73.7944 351.334 75.9691C351.821 75.8654 352.326 75.8108 352.844 75.8108C356.796 75.8108 360 78.9872 360 82.9054C360 86.786 356.858 89.939 352.958 89.9991V90L272.089 90Z" fill="url(#paint0_linear_20381_30844)"/>
<path fill-rule="evenodd" clip-rule="evenodd" d="M963.089 90V70.8218C960.566 68.3692 959 64.9514 959 61.1712C959 53.7079 965.102 47.6577 972.63 47.6577C977.238 47.6577 981.313 49.9256 983.78 53.3972C985.995 52.1797 988.544 51.4865 991.257 51.4865C991.873 51.4865 992.482 51.5223 993.079 51.592C994.757 44.9329 1000.83 40 1008.07 40C1016.6 40 1023.51 46.8569 1023.51 55.3153C1023.51 55.7885 1023.49 56.2567 1023.45 56.719C1025.58 55.4012 1028.09 54.6396 1030.78 54.6396C1038.44 54.6396 1044.64 60.7907 1044.64 68.3784C1044.64 71.1846 1043.79 73.7944 1042.33 75.9691C1042.82 75.8654 1043.33 75.8108 1043.84 75.8108C1047.8 75.8108 1051 78.9872 1051 82.9054C1051 86.786 1047.86 89.939 1043.96 89.9991V90L963.089 90Z" fill="url(#paint1_linear_20381_30844)"/>
<path d="M780.291 15.6686C778.305 6.70329 770.334 0 760.804 0C749.779 0 740.841 8.97029 740.841 20.0357C740.841 23.4946 741.715 26.7487 743.252 29.5882C742.115 29.2519 740.912 29.0714 739.667 29.0714C732.677 29.0714 727.011 34.7585 727.011 41.7738C727.011 43.2911 727.276 44.7463 727.762 46.0952H695.436C692.986 46.0952 691 48.0886 691 50.5476C691 53.0066 692.986 55 695.436 55H824.606V54.4762H830.651C832.795 50.1354 834 45.2447 834 40.0714C834 22.1353 819.513 7.59524 801.642 7.59524C793.461 7.59524 785.988 10.6428 780.291 15.6686Z" fill="url(#paint2_linear_20381_30844)"/>
<path d="M787.5 6.19352C788.801 4.80121 789.764 3.77165 789.225 2.39885C788.5 0.551531 786.205 -0.0354334 782.99 2.39885C779.8 4.8145 780.38 7.51453 780.96 8.22504C781.54 8.93554 782.845 9.36185 784.005 9.07765C785.075 8.81569 785.651 8.19149 786.87 6.87135C786.974 6.75926 787.082 6.64215 787.195 6.51983C787.298 6.40872 787.4 6.30006 787.5 6.19352Z" fill="url(#paint3_linear_20381_30844)"/>
<path d="M1471.29 15.6686C1469.31 6.70329 1461.33 0 1451.8 0C1440.78 0 1431.84 8.97029 1431.84 20.0357C1431.84 23.4946 1432.71 26.7487 1434.25 29.5882C1433.12 29.2519 1431.91 29.0714 1430.67 29.0714C1423.68 29.0714 1418.01 34.7585 1418.01 41.7738C1418.01 43.2911 1418.28 44.7463 1418.76 46.0952H1386.44C1383.99 46.0952 1382 48.0886 1382 50.5476C1382 53.0066 1383.99 55 1386.44 55H1515.61V54.4762H1521.65C1523.79 50.1354 1525 45.2447 1525 40.0714C1525 22.1353 1510.51 7.59524 1492.64 7.59524C1484.46 7.59524 1476.99 10.6428 1471.29 15.6686Z" fill="url(#paint4_linear_20381_30844)"/>
<path d="M1478.5 6.19352C1479.8 4.80121 1480.76 3.77165 1480.23 2.39885C1479.5 0.551531 1477.21 -0.0354334 1473.99 2.39885C1470.8 4.8145 1471.38 7.51453 1471.96 8.22504C1472.54 8.93554 1473.85 9.36185 1475.01 9.07765C1476.07 8.81569 1476.65 8.19149 1477.87 6.87135C1477.97 6.75926 1478.08 6.64215 1478.2 6.51983C1478.3 6.40872 1478.4 6.30006 1478.5 6.19352Z" fill="url(#paint5_linear_20381_30844)"/>
<path d="M492.481 30.1159C486.156 30.2248 484.034 35.1561 485.392 37.4697C486.751 39.7833 493.213 42.0001 504.741 42C516.269 41.9999 512.601 39.7833 526.399 39.7833C540.198 39.7833 564.136 39.2919 565 37.4696C562.383 33.0029 546.052 34.0651 537.873 33.5204C536.647 25.0771 524.924 24.26 522.061 31.4777C518.38 14.3188 496.706 15.8168 492.481 30.1159Z" fill="url(#paint6_linear_20381_30844)"/>
<path d="M1183.48 30.1159C1177.16 30.2248 1175.03 35.1561 1176.39 37.4697C1177.75 39.7833 1184.21 42.0001 1195.74 42C1207.27 41.9999 1203.6 39.7833 1217.4 39.7833C1231.2 39.7833 1255.14 39.2919 1256 37.4696C1253.38 33.0029 1237.05 34.0651 1228.87 33.5204C1227.65 25.0771 1215.92 24.26 1213.06 31.4777C1209.38 14.3188 1187.71 15.8168 1183.48 30.1159Z" fill="url(#paint7_linear_20381_30844)"/>
<path d="M89.2908 15.6686C87.3051 6.70329 79.3344 0 69.8038 0C58.7788 0 49.8412 8.97029 49.8412 20.0357C49.8412 23.4946 50.7145 26.7487 52.2518 29.5882C51.1152 29.2519 49.9121 29.0714 48.667 29.0714C41.6772 29.0714 36.0109 34.7585 36.0109 41.7738C36.0109 43.2911 36.276 44.7463 36.7622 46.0952H4.43613C1.98612 46.0952 0 48.0886 0 50.5476C0 53.0066 1.98612 55 4.43613 55H133.606V54.4762H139.651C141.795 50.1354 143 45.2447 143 40.0714C143 22.1353 128.513 7.59524 110.642 7.59524C102.461 7.59524 94.9885 10.6428 89.2908 15.6686Z" fill="url(#paint8_linear_20381_30844)"/>
<path d="M96.4995 6.19352C97.8013 4.80121 98.764 3.77165 98.2252 2.39885C97.5002 0.551531 95.2051 -0.0354334 91.9904 2.39885C88.8003 4.8145 89.3805 7.51453 89.9604 8.22504C90.5404 8.93554 91.8454 9.36185 93.0054 9.07765C94.0745 8.81569 94.651 8.19149 95.8701 6.87135C95.9736 6.75926 96.0818 6.64215 96.1953 6.51983C96.2983 6.40872 96.3999 6.30006 96.4995 6.19352Z" fill="url(#paint9_linear_20381_30844)"/>
<defs>
<linearGradient id="paint0_linear_20381_30844" x1="314.203" y1="40" x2="314.203" y2="90" gradientUnits="userSpaceOnUse">
<stop offset="0.100457" stop-color="#9AADFF"/>
<stop offset="1" stop-color="#6C76FA"/>
</linearGradient>
<linearGradient id="paint1_linear_20381_30844" x1="1005.2" y1="40" x2="1005.2" y2="90" gradientUnits="userSpaceOnUse">
<stop offset="0.100457" stop-color="#9AADFF"/>
<stop offset="1" stop-color="#6C76FA"/>
</linearGradient>
<linearGradient id="paint2_linear_20381_30844" x1="762.816" y1="0" x2="762.816" y2="55" gradientUnits="userSpaceOnUse">
<stop stop-color="#9AADFF"/>
<stop offset="1" stop-color="#6C76FA"/>
</linearGradient>
<linearGradient id="paint3_linear_20381_30844" x1="762.816" y1="0" x2="762.816" y2="55" gradientUnits="userSpaceOnUse">
<stop stop-color="#9AADFF"/>
<stop offset="1" stop-color="#6C76FA"/>
</linearGradient>
<linearGradient id="paint4_linear_20381_30844" x1="1453.82" y1="0" x2="1453.82" y2="55" gradientUnits="userSpaceOnUse">
<stop stop-color="#9AADFF"/>
<stop offset="1" stop-color="#6C76FA"/>
</linearGradient>
<linearGradient id="paint5_linear_20381_30844" x1="1453.82" y1="0" x2="1453.82" y2="55" gradientUnits="userSpaceOnUse">
<stop stop-color="#9AADFF"/>
<stop offset="1" stop-color="#6C76FA"/>
</linearGradient>
<linearGradient id="paint6_linear_20381_30844" x1="525.177" y1="19" x2="525.177" y2="42" gradientUnits="userSpaceOnUse">
<stop offset="0.135446" stop-color="#9AADFF"/>
<stop offset="1" stop-color="#6C76FA"/>
</linearGradient>
<linearGradient id="paint7_linear_20381_30844" x1="1216.18" y1="19" x2="1216.18" y2="42" gradientUnits="userSpaceOnUse">
<stop offset="0.135446" stop-color="#9AADFF"/>
<stop offset="1" stop-color="#6C76FA"/>
</linearGradient>
<linearGradient id="paint8_linear_20381_30844" x1="71.8158" y1="0" x2="71.8158" y2="55" gradientUnits="userSpaceOnUse">
<stop stop-color="#9AADFF"/>
<stop offset="1" stop-color="#6C76FA"/>
</linearGradient>
<linearGradient id="paint9_linear_20381_30844" x1="71.8158" y1="0" x2="71.8158" y2="55" gradientUnits="userSpaceOnUse">
<stop stop-color="#9AADFF"/>
<stop offset="1" stop-color="#6C76FA"/>
</linearGradient>
</defs>
</svg>
