<svg width="99" height="24" viewBox="0 0 99 24" fill="none" xmlns="http://www.w3.org/2000/svg">
<path fill-rule="evenodd" clip-rule="evenodd" d="M12.8072 22.9208C11.7897 23.9922 10.2726 23.9922 10.2726 23.9922C10.2726 23.9922 8.75544 23.9922 7.73796 22.9208C7.20776 22.4005 7.02245 21.8419 6.82857 21.2575C6.58947 20.5369 6.33733 19.7769 5.40926 19.0007C3.80431 17.6701 1.78146 18.6165 1.78146 18.6165C0.385454 15.7303 1.14554 12.3725 1.14554 12.3725C-1.15213 6.15308 0.618438 1.64372 1.20701 0.144711C1.22737 0.0928532 1.24632 0.0445983 1.26364 0C2.96549 2.45201 5.10038 4.14811 7.61683 5.28821C8.49198 5.04145 9.39136 4.91026 10.2726 4.91963C11.1568 4.91026 12.0532 5.04145 12.9283 5.28821C15.4478 4.15123 17.5797 2.45201 19.2815 0C19.2988 0.0445974 19.3178 0.0928513 19.3381 0.144708C19.9267 1.64371 21.6973 6.15307 19.3996 12.3725C19.3996 12.3725 20.1597 15.7303 18.7637 18.6165C18.7637 18.6165 16.7408 17.6701 15.1359 19.0007C14.21 19.7765 13.9574 20.5361 13.718 21.2564C13.5235 21.8412 13.3377 22.4001 12.8072 22.9208ZM1.58491 2.01465C0.764259 4.98517 1.11856 8.74284 2.41464 11.4791C3.74099 10.5108 5.13397 9.01459 5.87589 7.43094C4.12861 6.09717 2.66295 4.82899 1.58491 2.01465ZM8.39188 16.8452C8.32829 14.7087 6.28727 14.0215 4.89429 14.9211C4.89429 14.9211 5.11233 15.8394 6.12981 16.3017C6.48556 16.4637 6.75447 16.4633 7.03034 16.4628C7.39789 16.4622 7.77779 16.4616 8.39188 16.8452ZM12.1538 16.8452C12.2174 14.7087 14.2584 14.0215 15.6514 14.9211C15.6514 14.9211 15.4334 15.8394 14.4159 16.3017C14.0601 16.4637 13.7912 16.4633 13.5153 16.4628C13.1478 16.4622 12.7679 16.4616 12.1538 16.8452ZM18.9607 2.01465C19.7813 4.98517 19.427 8.74284 18.131 11.4791C16.8046 10.5108 15.4116 9.01459 14.6697 7.43094C16.417 6.09717 17.8826 4.82899 18.9607 2.01465ZM10.2728 23.8766C11.002 23.8766 11.5931 23.3396 11.5931 22.6772C11.5931 22.0148 11.002 21.4777 10.2728 21.4777C9.54364 21.4777 8.95252 22.0148 8.95252 22.6772C8.95252 23.3396 9.54364 23.8766 10.2728 23.8766Z" fill="#F7F7F7"/>
<path d="M28.1016 4.62991H31.1422L37.1414 14.0543V4.62991H40.2643V19.2043H37.2442L31.2244 9.77994V19.2043H28.1016V4.62991Z" fill="#F7F7F7"/>
<path d="M44.1122 7.65321C43.6328 7.65321 43.2287 7.49336 42.9 7.17365C42.5713 6.85395 42.4069 6.45084 42.4069 5.96433C42.4069 5.49172 42.5713 5.09557 42.9 4.77586C43.2287 4.44226 43.6328 4.27546 44.1122 4.27546C44.5916 4.27546 44.9956 4.44226 45.3243 4.77586C45.6531 5.09557 45.8174 5.49172 45.8174 5.96433C45.8174 6.45084 45.6531 6.85395 45.3243 7.17365C44.9956 7.49336 44.5916 7.65321 44.1122 7.65321ZM42.5507 9.19613H45.6736V19.2043H42.5507V9.19613Z" fill="#F7F7F7"/>
<path d="M53.2451 23.9999C52.5877 23.9999 51.9234 23.9373 51.2523 23.8122C50.5948 23.6871 50.0401 23.5203 49.5881 23.3118V20.9974C50.6427 21.47 51.8618 21.7063 53.2451 21.7063C54.3546 21.7063 55.149 21.477 55.6284 21.0183C56.1078 20.5596 56.3475 19.8715 56.3475 18.9541V18.3286C55.9228 18.7178 55.4024 19.0097 54.786 19.2043C54.1697 19.4128 53.5122 19.517 52.8137 19.517C51.8001 19.517 50.8893 19.2946 50.0812 18.8498C49.2868 18.3911 48.6636 17.7587 48.2116 16.9525C47.7596 16.1462 47.5336 15.2288 47.5336 14.2002C47.5336 13.1438 47.7527 12.2125 48.191 11.4063C48.643 10.6001 49.2594 9.9815 50.0401 9.55059C50.8345 9.10578 51.7385 8.88338 52.7521 8.88338C53.5191 8.88338 54.1971 8.99458 54.786 9.21698C55.375 9.43939 55.9297 9.79384 56.4502 10.2804V9.19613H59.4498V18.5579C59.4498 20.2955 58.943 21.6368 57.9294 22.582C56.9159 23.5273 55.3544 23.9999 53.2451 23.9999ZM53.5533 17.0776C54.1971 17.0776 54.7723 16.9038 55.2791 16.5563C55.7996 16.1949 56.1557 15.7223 56.3475 15.1385V13.2619C56.1283 12.6781 55.7653 12.2125 55.2586 11.865C54.7655 11.5175 54.1971 11.3437 53.5533 11.3437C52.7178 11.3437 52.033 11.6009 51.4988 12.1152C50.9783 12.6295 50.7181 13.3175 50.7181 14.1794C50.7181 15.0551 50.9783 15.757 51.4988 16.2852C52.033 16.8135 52.7178 17.0776 53.5533 17.0776Z" fill="#F7F7F7"/>
<path d="M61.6078 3.7959H64.7101V10.3429C65.1758 9.85639 65.7031 9.49499 66.2921 9.25868C66.8811 9.00848 67.5111 8.88338 68.1823 8.88338C69.5245 8.88338 70.5244 9.25173 71.1819 9.98845C71.853 10.7113 72.1886 11.6912 72.1886 12.9283V19.2043H69.0862V13.2828C69.0862 11.9901 68.4973 11.3437 67.3194 11.3437C66.7989 11.3437 66.3126 11.4758 65.8607 11.7399C65.4087 11.9901 65.0252 12.3654 64.7101 12.8658V19.2043H61.6078V3.7959Z" fill="#F7F7F7"/>
<path d="M78.3775 19.517C77.2269 19.517 76.3503 19.1973 75.7477 18.5579C75.1587 17.9046 74.8642 17.0011 74.8642 15.8474V11.4688H73.4261V9.19613H74.8642V6.19369H77.9666V9.19613H80.2882V11.4688H77.9666V15.4304C77.9666 16.0142 78.0761 16.4381 78.2953 16.7023C78.5144 16.9525 78.9048 17.0776 79.4664 17.0776C79.9184 17.0776 80.3498 16.9664 80.7607 16.744V19.1C80.1307 19.378 79.3362 19.517 78.3775 19.517Z" fill="#F7F7F7"/>
<path d="M82.1931 3.7959H85.2954V19.2043H82.1931V3.7959Z" fill="#F7F7F7"/>
<path d="M90.1617 23.3327C89.7508 23.3327 89.3262 23.3049 88.8879 23.2493C88.4633 23.1937 88.1414 23.1172 87.9223 23.0199V20.6638C88.3195 20.8167 88.7578 20.8932 89.2372 20.8932C89.7303 20.8932 90.1001 20.782 90.3466 20.5596C90.6069 20.3372 90.8192 19.9897 90.9835 19.517L91.3122 18.6622L87.0389 9.19613H90.1617L92.9559 16.0976L95.6062 9.19613H98.7085L94.5173 19.8924C94.0516 21.0739 93.4763 21.9426 92.7915 22.4986C92.1067 23.0547 91.2301 23.3327 90.1617 23.3327Z" fill="#F7F7F7"/>
</svg>
